<svg width="24" height="25" viewBox="0 0 24 25" fill="none" xmlns="http://www.w3.org/2000/svg">
<path d="M20 7.2002V7.0002C20 5.32004 20 4.47996 19.673 3.83822C19.3854 3.27374 18.9265 2.8148 18.362 2.52718C17.7202 2.2002 16.8802 2.2002 15.2 2.2002H8.8C7.11984 2.2002 6.27976 2.2002 5.63803 2.52718C5.07354 2.8148 4.6146 3.27374 4.32698 3.83822C4 4.47996 4 5.32004 4 7.0002V17.4002C4 19.0804 4 19.9204 4.32698 20.5622C4.6146 21.1267 5.07354 21.5856 5.63803 21.8732C6.27976 22.2002 7.11984 22.2002 8.8 22.2002H12.5M12.5 11.2002H8M11.5 15.2002H8M16 7.2002H8M18 18.2002V12.7002C18 11.8718 18.6716 11.2002 19.5 11.2002C20.3284 11.2002 21 11.8718 21 12.7002V18.2002C21 19.857 19.6569 21.2002 18 21.2002C16.3431 21.2002 15 19.857 15 18.2002V14.2002" stroke="#98A2B3" stroke-width="2" stroke-linecap="round" stroke-linejoin="round"/>
</svg>
