<svg width="24" height="25" viewBox="0 0 24 25" fill="none" xmlns="http://www.w3.org/2000/svg">
<path d="M2 7.90216C2 6.41001 3.20963 5.20038 4.70178 5.20038C5.47706 5.20038 6.16537 4.70428 6.41053 3.96878L6.5 3.70038C6.54219 3.57381 6.56329 3.51052 6.58586 3.45438C6.87405 2.7375 7.54939 2.25074 8.32061 2.20404C8.38101 2.20038 8.44772 2.20038 8.58114 2.20038H15.4189C15.5523 2.20038 15.619 2.20038 15.6794 2.20404C16.4506 2.25074 17.126 2.7375 17.4141 3.45438C17.4367 3.51052 17.4578 3.57381 17.5 3.70038L17.5895 3.96878C17.8346 4.70428 18.5229 5.20038 19.2982 5.20038C20.7904 5.20038 22 6.41001 22 7.90216V16.4004C22 18.0805 22 18.9206 21.673 19.5623C21.3854 20.1268 20.9265 20.5858 20.362 20.8734C19.7202 21.2004 18.8802 21.2004 17.2 21.2004H6.8C5.11984 21.2004 4.27976 21.2004 3.63803 20.8734C3.07354 20.5858 2.6146 20.1268 2.32698 19.5623C2 18.9206 2 18.0805 2 16.4004V7.90216Z" stroke="#98A2B3" stroke-width="2" stroke-linecap="round" stroke-linejoin="round"/>
<path d="M12 16.7004C14.4853 16.7004 16.5 14.6857 16.5 12.2004C16.5 9.7151 14.4853 7.70038 12 7.70038C9.51472 7.70038 7.5 9.7151 7.5 12.2004C7.5 14.6857 9.51472 16.7004 12 16.7004Z" stroke="#98A2B3" stroke-width="2" stroke-linecap="round" stroke-linejoin="round"/>
</svg>
