<svg width="20" height="21" viewBox="0 0 20 21" fill="none" xmlns="http://www.w3.org/2000/svg">
<g clip-path="url(#clip0_1_1802)">
<path d="M5.07876 9.55751C5.02696 9.22371 5.00009 8.88173 5.00009 8.53352C5.00009 4.85162 8.0045 1.86685 11.7106 1.86685C15.4167 1.86685 18.4211 4.85162 18.4211 8.53352C18.4211 9.36525 18.2678 10.1614 17.9878 10.8956C17.9296 11.0481 17.9005 11.1243 17.8873 11.1839C17.8742 11.2428 17.8692 11.2843 17.8677 11.3447C17.8663 11.4057 17.8746 11.4728 17.8911 11.6071L18.2266 14.3323C18.2629 14.6273 18.2811 14.7748 18.232 14.882C18.189 14.976 18.1126 15.0506 18.0177 15.0914C17.9094 15.138 17.7623 15.1165 17.4682 15.0734L14.8138 14.6843C14.6752 14.664 14.6059 14.6538 14.5428 14.6542C14.4804 14.6545 14.4372 14.6591 14.3761 14.672C14.3143 14.685 14.2354 14.7145 14.0776 14.7736C13.3415 15.0493 12.5438 15.2002 11.7106 15.2002C11.3621 15.2002 11.0198 15.1738 10.6857 15.1229M6.35977 18.5335C8.83052 18.5335 10.8335 16.4815 10.8335 13.9502C10.8335 11.4189 8.83052 9.36685 6.35977 9.36685C3.88902 9.36685 1.88609 11.4189 1.88609 13.9502C1.88609 14.459 1.96702 14.9485 2.11641 15.4058C2.17957 15.5991 2.21114 15.6958 2.2215 15.7618C2.23232 15.8307 2.23422 15.8695 2.23019 15.9391C2.22633 16.0058 2.20963 16.0813 2.17624 16.2321L1.66679 18.5335L4.16246 18.1927C4.29868 18.1741 4.36679 18.1648 4.42626 18.1652C4.48889 18.1656 4.52213 18.169 4.58355 18.1812C4.64188 18.1929 4.72859 18.2235 4.90202 18.2847C5.35895 18.446 5.84938 18.5335 6.35977 18.5335Z" stroke="#98A2B3" stroke-width="2" stroke-linecap="round" stroke-linejoin="round"/>
</g>
<defs>
<clipPath id="clip0_1_1802">
<rect width="20" height="20" fill="white" transform="translate(0.00012207 0.200195)"/>
</clipPath>
</defs>
</svg>
