<svg width="24" height="25" viewBox="0 0 24 25" fill="none" xmlns="http://www.w3.org/2000/svg">
<path d="M8.39 18.6902V8.5302C8.39 8.1302 8.51 7.7402 8.73 7.4102L11.46 3.3502C11.89 2.7002 12.96 2.2402 13.87 2.5802C14.85 2.9102 15.5 4.0102 15.29 4.9902L14.77 8.2602C14.73 8.5602 14.81 8.8302 14.98 9.0402C15.15 9.2302 15.4 9.3502 15.67 9.3502H19.78C20.57 9.3502 21.25 9.6702 21.65 10.2302C22.03 10.7702 22.1 11.4702 21.85 12.1802L19.39 19.6702C19.08 20.9102 17.73 21.9202 16.39 21.9202H12.49C11.82 21.9202 10.88 21.6902 10.45 21.2602L9.17 20.2702C8.68 19.9002 8.39 19.3102 8.39 18.6902Z" fill="#7F56D9"/>
<path d="M5.21 6.5802H4.18C2.63 6.5802 2 7.1802 2 8.6602V18.7202C2 20.2002 2.63 20.8002 4.18 20.8002H5.21C6.76 20.8002 7.39 20.2002 7.39 18.7202V8.6602C7.39 7.1802 6.76 6.5802 5.21 6.5802Z" fill="#7F56D9"/>
</svg>
