<svg width="24" height="25" viewBox="0 0 24 25" fill="none" xmlns="http://www.w3.org/2000/svg">
<path d="M22 9.13157C22 8.52575 22 8.22284 21.8802 8.08258C21.7763 7.96087 21.6203 7.89629 21.4608 7.90884C21.2769 7.92332 21.0627 8.1375 20.6343 8.56588L17 12.2002L20.6343 15.8345C21.0627 16.2629 21.2769 16.4771 21.4608 16.4915C21.6203 16.5041 21.7763 16.4395 21.8802 16.3178C22 16.1775 22 15.8746 22 15.2688V9.13157Z" stroke="#98A2B3" stroke-width="2" stroke-linecap="round" stroke-linejoin="round"/>
<path d="M2 10.0002C2 8.32004 2 7.47996 2.32698 6.83822C2.6146 6.27374 3.07354 5.8148 3.63803 5.52718C4.27976 5.2002 5.11984 5.2002 6.8 5.2002H12.2C13.8802 5.2002 14.7202 5.2002 15.362 5.52718C15.9265 5.8148 16.3854 6.27374 16.673 6.83822C17 7.47996 17 8.32004 17 10.0002V14.4002C17 16.0804 17 16.9204 16.673 17.5622C16.3854 18.1267 15.9265 18.5856 15.362 18.8732C14.7202 19.2002 13.8802 19.2002 12.2 19.2002H6.8C5.11984 19.2002 4.27976 19.2002 3.63803 18.8732C3.07354 18.5856 2.6146 18.1267 2.32698 17.5622C2 16.9204 2 16.0804 2 14.4002V10.0002Z" stroke="#98A2B3" stroke-width="2" stroke-linecap="round" stroke-linejoin="round"/>
</svg>
